<svg width="83" height="72" viewBox="0 0 83 72" fill="none" xmlns="http://www.w3.org/2000/svg">
<path fill-rule="evenodd" clip-rule="evenodd" d="M40.4387 66.3701C40.8773 67.116 41.4733 68.1472 41.7633 68.6618C42.0532 69.1763 42.6297 70.1379 43.0443 70.7987C43.4589 71.4594 43.8868 72 43.9953 72C44.1037 72 44.4549 71.5354 44.7756 70.9675C45.0964 70.3997 45.7516 69.3056 46.2316 68.5362C46.7117 67.7669 47.4743 66.5079 47.9263 65.7385C48.7003 64.4213 48.779 64.3331 49.2754 64.2272C49.5653 64.1653 50.3541 63.9405 51.0281 63.7276C51.7022 63.5147 52.3158 63.3405 52.3917 63.3405C52.4675 63.3405 52.967 63.1307 53.5016 62.8743C54.0362 62.6178 54.5403 62.408 54.6218 62.408C54.7033 62.408 54.9274 62.3234 55.1198 62.2201C55.3122 62.1167 55.6895 61.9353 55.9582 61.8168C56.227 61.6984 56.4813 61.5451 56.5235 61.4762C56.5656 61.4072 56.9684 61.1663 57.4186 60.9408C58.2957 60.5015 59.403 59.7381 59.9955 59.1643C60.1961 58.97 60.4206 58.811 60.4942 58.811C60.676 58.811 62.1809 57.4147 63.6327 55.8992C64.9396 54.5349 67.6868 50.9323 68.0666 50.0849C68.1979 49.7918 68.5754 49.1656 68.9054 48.6933C69.2354 48.2211 69.5054 47.7585 69.5054 47.6655C69.5054 47.5724 69.6833 47.2127 69.9007 46.8661C70.1182 46.5195 70.2961 46.1556 70.2961 46.0574C70.2961 45.9593 70.3899 45.7344 70.5045 45.5576C70.619 45.3808 70.7255 45.1483 70.7411 45.0409C70.7567 44.9335 70.8706 44.6306 70.9941 44.3678L71.4414 43.4157C71.5639 43.1548 71.6825 42.8101 71.705 42.6497C71.7752 42.149 71.8218 41.9688 71.97 41.6253C72.23 41.0228 72.4391 40.1905 72.3621 40.0645C72.3205 39.9965 72.3625 39.7927 72.4555 39.6116C72.5484 39.4305 72.6326 39.195 72.6426 39.0883C72.6525 38.9815 72.688 38.7443 72.7213 38.5611C72.7547 38.378 72.8152 37.9583 72.8559 37.6286C72.947 36.8899 73.0868 35.8089 73.1488 35.3638C73.4983 32.855 73.3493 26.9388 72.9906 29.0843C72.8518 29.9149 72.6556 29.4852 72.6014 28.2316C72.578 27.6907 72.5305 27.2008 72.4958 27.1428C72.4612 27.0848 72.3347 26.4379 72.2149 25.7052C72.095 24.9724 71.905 24.0851 71.7926 23.7334L71.5884 23.0938L72.0829 22.1347C72.3548 21.6072 72.9749 20.4562 73.4608 19.5769C74.6975 17.3389 75.9945 14.8959 77.3507 12.2497C77.9891 11.004 78.641 9.77507 78.7994 9.51862C79.5487 8.3054 80.3129 6.72028 80.1532 6.71043C80.0208 6.70225 80.0195 6.68494 80.1475 6.63271C80.2381 6.59576 80.3141 6.43563 80.3164 6.27687C80.3204 6.00372 80.9567 4.70803 82.0808 2.68452C82.3575 2.18639 82.5424 1.73677 82.4916 1.68535C82.4408 1.63394 80.2037 1.57288 77.5201 1.54965C73.3306 1.5134 72.568 1.53694 72.1248 1.71618C71.739 1.87224 71.0854 1.92828 69.5357 1.93821C68.2921 1.94618 67.5944 1.99417 67.7921 2.05815C67.9733 2.11682 68.4774 2.17736 68.9123 2.19269C69.6794 2.21973 69.6873 2.22365 69.1759 2.32347C68.886 2.38007 67.3736 2.46927 65.8152 2.52169C61.3465 2.67202 60.8684 2.81648 64.695 2.86019L67.9898 2.89782L66.0129 3.01586C64.9256 3.08078 61.8973 3.14664 59.2833 3.16222L54.5306 3.19055L53.9815 2.82418C53.6796 2.62268 53.347 2.45782 53.2426 2.45782C53.1382 2.45782 52.8849 2.37523 52.6797 2.27428C51.5378 1.71252 49.8764 1.13049 48.8586 0.935599C48.7019 0.905588 48.4612 0.820199 48.3238 0.745847C48.1863 0.671495 47.8105 0.574893 47.4885 0.531176C47.1666 0.48746 46.7845 0.427192 46.6396 0.397248C45.0549 0.0699365 43.7493 -0.0377734 41.961 0.0112834C39.9115 0.0675036 37.577 0.367737 36.6234 0.697733C36.0659 0.890644 35.457 0.923861 32.6697 0.91343C30.767 0.906308 29.0445 0.835948 28.5929 0.746901C28.0352 0.636944 24.3203 0.592706 15.6444 0.592706C8.9528 0.592706 3.47787 0.623826 3.47787 0.661862C3.47787 0.826887 7.98875 8.99193 9.2173 11.0507C9.96062 12.2963 11.1906 14.4081 11.9506 15.7436L13.3324 18.1718L13.0681 19.0076C12.9228 19.4673 12.7589 19.9356 12.704 20.0483C12.649 20.1611 12.5597 20.5184 12.5056 20.8425C12.4514 21.1666 12.3568 21.524 12.2954 21.6367C12.136 21.9291 11.6636 24.4797 11.5789 25.5053C11.5395 25.9816 11.4787 26.5062 11.4438 26.671C11.4089 26.8359 11.4396 26.9708 11.5121 26.9708C11.5846 26.9708 11.6789 26.8059 11.7217 26.6044C11.7644 26.4029 11.8842 25.957 11.9878 25.6135C12.0914 25.27 12.1761 24.8953 12.1761 24.7809C12.1761 24.6664 12.2672 24.5728 12.3784 24.5728C12.5352 24.5728 12.5511 24.6289 12.449 24.8217C12.3765 24.9586 12.3495 25.1033 12.3891 25.1433C12.4287 25.1833 12.3832 25.3561 12.2881 25.5272C12.0876 25.888 12.0661 25.9873 11.976 26.9708L11.9089 27.7035L12.13 27.3038C12.3435 26.9179 12.3741 26.8085 12.4943 25.9985C12.5247 25.7935 12.6096 25.5528 12.6828 25.4636C12.7561 25.3744 12.8476 25.0625 12.8862 24.7706C12.9712 24.1285 13.9392 21.2718 14.1409 21.0679C14.22 20.9879 14.2848 20.7881 14.2848 20.6239C14.2848 20.4597 14.3395 20.2912 14.4065 20.2493C14.5504 20.1594 15.9476 22.6959 16.9011 24.7783C17.9086 26.9786 18.6741 28.3553 19.1288 28.7847C19.6451 29.2724 21.4113 32.3983 21.717 33.3655C22.2613 35.0878 24.9024 39.692 25.2653 39.5512C25.4702 39.4717 26.8486 41.845 27.5168 43.4279C28.5248 45.8155 29.9587 48.4625 30.9425 49.7518C31.9342 51.0514 35.1703 57.0497 34.8028 56.9072C34.6992 56.867 34.3392 56.7923 34.0028 56.7414C33.6665 56.6904 33.3589 56.5956 33.3192 56.5308C33.2796 56.466 33.1313 56.413 32.9896 56.413C32.8479 56.413 32.629 56.361 32.5031 56.2976C32.2311 56.1604 31.4458 55.8852 31.1213 55.8133C30.9946 55.7852 30.759 55.6688 30.5978 55.5547C30.4366 55.4406 30.213 55.3472 30.101 55.3472C29.989 55.3472 29.6791 55.1973 29.4125 55.0141C29.1458 54.8309 28.8495 54.6811 28.7541 54.6811C28.6587 54.6811 28.2724 54.4712 27.8957 54.2148C27.519 53.9583 27.1286 53.7485 27.0282 53.7485C26.9278 53.7485 26.3529 53.3888 25.7506 52.9492C25.1484 52.5095 24.561 52.1494 24.4453 52.149C24.3297 52.1485 24.0635 52.0337 23.8538 51.894C23.6441 51.7543 23.398 51.6688 23.307 51.7041C23.2159 51.7394 23.1023 51.7043 23.0545 51.626C22.8981 51.3703 21.6037 51.456 21.2388 51.7462C20.9293 51.9923 20.9104 52.0773 20.936 53.1117C20.9633 54.2137 21.084 54.6221 21.6706 55.5963C21.9787 56.1078 21.9411 56.2339 21.5446 56.0194C21.1219 55.7907 21.2002 55.9898 21.9928 57.1591C22.0104 57.1852 22.0267 57.2094 22.0419 57.2322C22.0839 57.2949 22.1187 57.3467 22.1561 57.3964C22.3335 57.6321 22.5723 57.8217 23.9426 58.9096L23.9426 58.9096L24.2781 59.176C25.2227 59.9264 26.0335 60.6607 26.0797 60.808C26.1311 60.9719 26.279 61.0757 26.4609 61.0757C26.6243 61.0757 26.991 61.2539 27.2757 61.4717C27.5604 61.6895 27.8823 61.8696 27.9911 61.8719C28.0998 61.8742 28.3829 61.9958 28.6203 62.142C28.8576 62.2883 29.1655 62.408 29.3044 62.408C29.4433 62.408 29.5923 62.4657 29.6355 62.5363C29.6786 62.6068 29.9045 62.7231 30.1374 62.7946C30.3704 62.8661 30.8279 63.0251 31.1541 63.148C31.7586 63.3757 32.7262 63.6474 33.7899 63.888C34.1161 63.9618 34.5016 64.0757 34.6465 64.1411C35.0447 64.3208 36.9081 64.6674 37.8754 64.7417L37.9113 64.7444C38.7238 64.8068 39.1352 64.8384 39.4473 65.0309C39.7674 65.2284 39.983 65.5951 40.4199 66.3381L40.4387 66.3701ZM48.8152 50.751C48.5721 51.1906 47.5421 52.9592 46.5263 54.6811C45.5104 56.403 44.6755 57.8199 44.671 57.8299C44.6664 57.8398 44.4181 57.8888 44.1192 57.9387L43.5757 58.0294L42.9847 56.988C42.6596 56.4153 41.4289 54.2081 40.2498 52.0832L36.8489 45.955C36.1576 44.7094 35.1947 43.0008 34.7091 42.1581C34.2235 41.3155 33.1283 39.3671 32.2753 37.8284C31.4224 36.2897 30.2757 34.2214 29.7272 33.2322C29.1787 32.2431 28.0813 30.2947 27.2886 28.9025C26.4959 27.5103 25.3452 25.4743 24.7315 24.3781C24.1178 23.2819 22.5222 20.45 21.1859 18.085L18.7561 13.7851L19.5099 12.8842C19.9245 12.3887 20.4308 11.8792 20.6349 11.7521C20.8391 11.6249 21.0061 11.4638 21.0061 11.394C21.0061 11.3243 21.4064 10.9357 21.8957 10.5306C22.385 10.1254 22.9929 9.59081 23.2466 9.3425C23.5003 9.09419 24.0477 8.72865 24.4631 8.53018C24.8785 8.33171 25.2503 8.11701 25.2894 8.05307C25.3853 7.89617 26.174 7.50422 26.2465 7.57745C26.3451 7.67709 26.1395 7.91995 25.9567 7.91995C25.8611 7.91995 25.7082 8.01098 25.6168 8.12224C25.5255 8.2335 25.2365 8.42244 24.9747 8.54211C24.7128 8.66178 24.3503 8.89991 24.1691 9.07129C23.5969 9.61252 23.0159 10.0515 22.8718 10.0515C22.7954 10.0515 22.5745 10.2613 22.381 10.5178C22.1875 10.7742 21.9564 10.9841 21.8676 10.9841C21.6134 10.9841 21.2694 11.4404 21.125 11.9688C21.0105 12.388 20.523 12.9807 19.6553 13.7556C19.5284 13.8689 19.4246 14.0375 19.4246 14.1302C19.4246 14.453 20.0146 14.0035 21.415 12.6138C23.3679 10.6757 23.4663 10.5844 23.6021 10.5844C23.6694 10.5844 23.8949 10.4045 24.1032 10.1847C24.3116 9.96491 24.5569 9.78506 24.6485 9.78506C24.7401 9.78506 24.8624 9.70869 24.9204 9.61534C25.0704 9.37377 25.7036 8.98573 25.9478 8.98573C26.0614 8.98573 26.1885 8.89552 26.2304 8.78527C26.2722 8.67501 26.5076 8.49516 26.7534 8.3856L27.656 7.98299C27.9066 7.87112 28.1479 7.72027 28.1923 7.64776C28.2366 7.57526 28.324 7.54786 28.3865 7.58689C28.4489 7.62592 28.5363 7.59852 28.5806 7.52602C28.6526 7.40825 29.1404 7.1603 29.9021 6.85433C30.047 6.79609 30.487 6.61635 30.8797 6.4549C31.961 6.0104 32.6009 5.83883 36.1621 5.03842C37.3846 4.76367 42.7795 4.71509 43.9378 4.9684C44.3365 5.05558 44.8703 5.15957 45.124 5.19948C45.3777 5.23939 45.7038 5.2955 45.8488 5.32418C45.9938 5.35287 46.4089 5.41593 46.7714 5.46434C47.1338 5.51275 47.6675 5.63984 47.9575 5.74676C48.2474 5.85369 48.5736 5.94561 48.6823 5.95102C48.7911 5.95643 48.997 6.04195 49.14 6.14106C49.283 6.24018 49.5315 6.32128 49.6923 6.32128C49.8531 6.32128 50.0213 6.38123 50.0661 6.4545C50.1109 6.52777 50.2889 6.58772 50.4615 6.58772C50.6342 6.58772 50.8121 6.64767 50.8569 6.72094C50.9017 6.79422 51.0565 6.85417 51.201 6.85417C51.4363 6.85417 51.8982 7.06103 52.8997 7.61501C53.0809 7.71525 53.5327 7.94806 53.9038 8.13237C55.2258 8.78907 59.0816 11.8372 60.5765 13.4074C61.3557 14.2258 61.9933 14.9545 61.9933 15.0268C61.9933 15.0991 62.0797 15.2532 62.1854 15.3692C62.8153 16.061 63.291 16.7075 63.4883 17.1399C63.6122 17.4116 63.7715 17.67 63.8422 17.7142C63.913 17.7584 64.0863 18.0509 64.2275 18.3642C64.3687 18.6775 64.5761 19.0109 64.6885 19.1052C64.8008 19.1994 64.8927 19.3724 64.8927 19.4897C64.8927 19.607 65.1066 20.1347 65.368 20.6625L65.8434 21.622L63.941 24.8626C62.8946 26.6449 61.9181 28.313 61.7708 28.5694C61.6235 28.8259 61.0868 29.7252 60.5781 30.5678C59.7264 31.9786 57.484 35.8527 56.4774 37.6521C56.0793 38.3639 56.0698 38.4108 56.3156 38.4514C56.5462 38.4895 56.4704 38.6661 55.668 39.96C54.8209 41.3259 54.1438 42.4894 52.7605 44.9558C52.4523 45.5054 52.1351 46.0894 52.0557 46.2537C51.9166 46.5413 51.7127 46.6612 51.7142 46.4546C51.7146 46.3996 51.861 46.1149 52.0396 45.8218C52.2182 45.5287 52.3661 45.2 52.3684 45.0914C52.3735 44.8479 51.9247 45.5199 51.2578 46.7543C50.9807 47.2672 50.4172 48.1965 50.0055 48.8193C49.5938 49.4421 49.0582 50.3114 48.8152 50.751ZM20.4873 12.3357C20.6331 12.2865 20.6285 12.3382 20.4647 12.5875C20.3514 12.76 20.1762 12.929 20.0753 12.963C19.9294 13.0121 19.9341 12.9605 20.0978 12.7112C20.2111 12.5387 20.3864 12.3697 20.4873 12.3357ZM55.9376 53.8069C55.8437 53.9213 55.7085 54.015 55.6373 54.015C55.5661 54.015 55.2477 54.1924 54.9299 54.4092C54.2747 54.8562 53.8222 55.1139 53.8222 55.0401C53.8222 54.875 55.6083 51.6979 56.4581 50.3513C57.013 49.4721 57.6659 48.393 57.9089 47.9533C58.152 47.5137 58.7213 46.5734 59.1741 45.8638C60.4762 43.8233 61.6015 41.7131 61.5793 41.3536C61.5538 40.9424 64.9701 34.7251 65.9683 33.366C66.2103 33.0365 66.6609 32.3471 66.9697 31.8339L67.5312 30.9008L67.4584 32.2331C67.3896 33.4933 67.3616 33.766 67.2193 34.5645C67.1866 34.7476 67.1196 35.2572 67.0704 35.6968C67.0211 36.1365 66.9296 36.6161 66.867 36.7626C66.8044 36.9092 66.6946 37.2989 66.6231 37.6286C66.3222 39.0157 66.099 39.793 65.9616 39.9319C65.8811 40.0133 65.8152 40.2063 65.8152 40.3608C65.8152 40.5153 65.7281 40.7581 65.6217 40.9004C65.5153 41.0426 65.4263 41.259 65.424 41.3813C65.4217 41.5036 65.3309 41.7884 65.2222 42.0141C65.1134 42.2399 64.946 42.5895 64.8502 42.791C64.6253 43.2638 64.4665 43.5815 64.1681 44.1565C64.0349 44.4129 63.7542 44.9598 63.5441 45.3717C62.4619 47.4945 58.6237 51.9055 56.7775 53.1484C56.4095 53.3961 56.0316 53.6924 55.9376 53.8069ZM50.4669 48.9884C50.9444 48.0536 51.0045 47.8731 50.7229 48.2198C50.4076 48.6079 49.8458 49.7518 49.9705 49.7518C50.0291 49.7518 50.2525 49.4083 50.4669 48.9884ZM51.4623 47.0874C51.5379 47.0874 51.473 47.2672 51.3182 47.487C51.1633 47.7069 51.0095 47.8867 50.9763 47.8867C50.9432 47.8867 51.008 47.7069 51.1205 47.487C51.2329 47.2672 51.3867 47.0874 51.4623 47.0874ZM12.6338 23.9008C12.587 23.8243 12.6476 23.6093 12.7683 23.423C13.0277 23.0229 12.899 22.7898 12.6266 23.1663C12.408 23.4685 12.377 24.0399 12.5793 24.0399C12.656 24.0399 12.6806 23.9773 12.6338 23.9008ZM74.7441 5.86805C75.1316 5.97866 75.114 6.11764 74.6072 6.94783C74.3744 7.32908 73.0338 9.57721 71.6281 11.9437C70.2224 14.3102 69.0308 16.2939 68.9801 16.3519C68.8743 16.4731 68.7174 16.2837 68.4513 15.7135C68.3487 15.4936 68.1785 15.2085 68.0731 15.0797C67.9676 14.951 67.8168 14.7324 67.7379 14.594C67.3875 13.9796 66.59 12.8805 66.283 12.5889C66.0982 12.4134 65.947 12.21 65.947 12.1369C65.947 12.0638 65.7316 11.7895 65.4684 11.5273C65.2052 11.2652 64.5599 10.6011 64.0345 10.0515C62.2739 8.21015 60.6435 6.74888 59.089 5.61901C58.7759 5.39139 58.8764 5.38573 61.9274 5.45938C70.7285 5.67185 74.4752 5.79132 74.7441 5.86805ZM16.188 12.3593C15.9116 11.8594 15.3332 10.9108 14.9026 10.2513C13.9504 8.79294 12.9661 6.79744 12.9689 6.33095C12.9701 6.13693 13.0129 6.0534 13.0677 6.13843C13.121 6.22105 13.4195 6.33172 13.7311 6.38438C14.0821 6.4437 14.4165 6.60974 14.6103 6.82096L14.9229 7.16182L16.9653 7.06971C18.1292 7.01723 19.0389 7.02867 19.0803 7.0963C19.1592 7.22543 17.5177 7.38498 16.0969 7.38626C15.6076 7.38666 15.2073 7.42771 15.2073 7.4774C15.2073 7.63215 17.479 11.517 17.5694 11.517C17.6165 11.517 17.8765 11.2172 18.147 10.8508C18.5017 10.3706 18.7284 10.1847 18.9594 10.1847C19.1834 10.1847 19.4303 9.99447 19.7805 9.55192C20.3319 8.85519 21.9853 7.20652 22.5529 6.78755C22.7514 6.64101 23.0629 6.48073 23.245 6.43138C24.0237 6.22033 24.5919 5.94495 24.9359 5.61178C25.1382 5.41582 25.3733 5.2555 25.4583 5.2555C25.5432 5.2555 25.7099 5.10562 25.8286 4.92244C25.9474 4.73926 26.1024 4.58938 26.1733 4.58938C26.3636 4.58938 27.0146 4.07253 27.7084 3.37045C28.0451 3.02976 28.4688 2.71799 28.65 2.67763C28.8312 2.63726 29.276 2.51035 29.6385 2.39559C30.2841 2.19117 30.2573 2.18841 28.3206 2.25909C27.2333 2.29877 25.5431 2.38815 24.5645 2.45771C23.5859 2.52728 20.7096 2.64865 18.1726 2.72743C15.6356 2.80621 12.5544 2.95762 11.3255 3.06391C10.0966 3.1702 8.92527 3.25716 8.72261 3.25716C8.46844 3.25716 8.35415 3.32517 8.35415 3.47643C8.35415 3.74212 9.73503 6.01144 10.4262 6.88154C11.3683 8.0677 12.4311 9.45373 13.0611 10.318C13.4083 10.7942 13.8257 11.2431 13.9886 11.3154C14.1515 11.3877 14.2848 11.4962 14.2848 11.5564C14.2848 11.6166 14.3467 11.6272 14.4223 11.58C14.498 11.5327 14.6437 11.5643 14.746 11.6502C14.8484 11.7361 14.9946 11.7673 15.071 11.7196C15.1473 11.6719 15.313 11.8227 15.4392 12.0546C15.9355 12.9668 16.4142 13.5476 16.5535 13.4068C16.6483 13.311 16.5356 12.9882 16.188 12.3593ZM23.1471 5.78839C23.0568 5.78839 22.983 5.86202 22.983 5.95202C22.983 6.04202 23.0568 6.11566 23.1471 6.11566C23.2373 6.11566 23.3111 6.04202 23.3111 5.95202C23.3111 5.86202 23.2373 5.78839 23.1471 5.78839ZM24.2446 4.96204C24.6497 4.77644 24.7049 4.77409 24.64 4.94518C24.5985 5.05457 24.5645 5.16914 24.5645 5.19978C24.5645 5.23042 24.4577 5.2555 24.3273 5.2555C24.1968 5.2555 24.0189 5.32744 23.9319 5.41536C23.8089 5.5397 23.7738 5.53107 23.7738 5.37651C23.7738 5.26721 23.9856 5.0807 24.2446 4.96204ZM25.3145 4.55449C25.437 4.43063 25.5002 4.29188 25.455 4.24616C25.3253 4.11504 25.0917 4.31632 25.0917 4.55918C25.0917 4.76254 25.109 4.76218 25.3145 4.55449ZM25.7506 4.08691C25.7506 3.99691 25.8245 3.92327 25.9147 3.92327C26.0049 3.92327 26.0788 3.99691 26.0788 4.08691C26.0788 4.17691 26.0049 4.25054 25.9147 4.25054C25.8245 4.25054 25.7506 4.17691 25.7506 4.08691ZM26.6181 3.65682C26.5034 3.65682 26.4096 3.73046 26.4096 3.82046C26.4096 3.91046 26.4487 3.9841 26.4964 3.9841C26.5442 3.9841 26.638 3.91046 26.705 3.82046C26.7719 3.73046 26.7328 3.65682 26.6181 3.65682ZM32.8001 5.54062C32.8001 5.49298 32.7263 5.39938 32.6361 5.33261C32.5458 5.26584 32.472 5.30482 32.472 5.41923C32.472 5.53363 32.5458 5.62724 32.6361 5.62724C32.7263 5.62724 32.8001 5.58826 32.8001 5.54062ZM33.5922 5.02996C33.9597 4.81576 34.4489 4.81576 34.4489 5.02996C34.4489 5.12827 34.1968 5.20305 33.8887 5.19614C33.4549 5.18641 33.3881 5.14894 33.5922 5.02996ZM33.3472 4.58938C33.5096 4.58938 33.6848 4.5203 33.7364 4.43587C33.8045 4.32458 33.6819 4.30635 33.2907 4.36958C32.5256 4.49325 32.0465 4.69886 32.1457 4.861C32.2342 5.00576 32.7099 4.91233 32.9267 4.70763C32.9955 4.64259 33.1848 4.58938 33.3472 4.58938ZM36.5898 4.32294C36.68 4.32294 36.7539 4.39657 36.7539 4.48657C36.7539 4.57657 36.68 4.65021 36.5898 4.65021C36.4996 4.65021 36.4257 4.57657 36.4257 4.48657C36.4257 4.39657 36.4996 4.32294 36.5898 4.32294ZM39.2592 4.35335C39.304 4.26335 39.2186 4.18971 39.0693 4.18971C38.9201 4.18971 38.798 4.26335 38.798 4.35335C38.798 4.44335 38.8834 4.51699 38.9879 4.51699C39.0923 4.51699 39.2144 4.44335 39.2592 4.35335ZM13.7121 40.7593C13.7515 40.9059 13.8669 41.2147 13.9684 41.4456C14.0699 41.6764 14.1619 41.9762 14.1727 42.1117C14.1836 42.2471 14.2174 42.1911 14.2478 41.9871C14.2782 41.7831 14.2163 41.3634 14.1102 41.0545C13.6568 39.735 13.0236 37.1911 12.9092 36.2297C12.8656 35.8634 12.8031 34.9589 12.7703 34.2198C12.692 32.4554 12.4596 31.7903 12.4486 33.2988C12.4385 34.6682 13.0129 38.6694 13.3672 39.6991C13.5175 40.1357 13.6727 40.6128 13.7121 40.7593ZM11.5108 39.7153C11.3717 39.4244 11.218 38.9707 11.1692 38.7072C11.1203 38.4437 11.0031 38.0409 10.9086 37.812C10.8142 37.5832 10.7731 37.3593 10.8175 37.3145C10.9071 37.2239 11.2536 37.835 11.2536 38.0834C11.2536 38.1703 11.3277 38.3163 11.4183 38.4079C11.5089 38.4995 11.588 38.6164 11.5941 38.6677C11.6002 38.719 11.6742 38.9295 11.7586 39.1355C11.927 39.5464 12.1224 40.9591 12.0108 40.9591C11.9725 40.9591 11.9012 40.7983 11.8524 40.6018C11.8036 40.4052 11.6498 40.0063 11.5108 39.7153ZM10.2677 26.3089C10.3017 26.3645 10.2753 26.7009 10.2091 27.0567C9.76738 29.4295 9.85253 33.8942 10.3582 34.8756C10.4275 35.0101 10.5196 35.0843 10.563 35.0405C10.7034 34.8985 10.7454 33.8823 10.6175 33.7215C10.3857 33.4301 10.2963 32.6403 10.3015 30.9311C10.3053 29.6871 10.3576 29.1466 10.495 28.9312C10.5986 28.7689 10.7443 28.2764 10.8188 27.8367C11.0067 26.7274 11.039 23.8198 10.8647 23.7109C10.7831 23.6599 10.7264 23.7534 10.7264 23.9388C10.7264 24.1116 10.674 24.31 10.61 24.3796C10.4699 24.5318 10.1801 26.1656 10.2677 26.3089ZM11.2536 29.0242C11.2536 28.7901 11.6217 28.3643 11.7297 28.4734C11.7859 28.5303 11.7018 28.7084 11.5428 28.8692C11.3837 29.03 11.2536 29.0997 11.2536 29.0242ZM0.60344 6.15475C0.546549 6.06316 0.5 6.13809 0.5 6.32128C0.5 6.50446 0.546549 6.57939 0.60344 6.4878C0.660334 6.39621 0.660334 6.24634 0.60344 6.15475Z" fill="url(#paint0_linear_821_13764)"/>
<defs>
<linearGradient id="paint0_linear_821_13764" x1="41.5" y1="0" x2="41.5" y2="72" gradientUnits="userSpaceOnUse">
<stop stop-color="#F4F6FA"/>
<stop offset="1" stop-color="#C3C3C6"/>
</linearGradient>
</defs>
</svg>
